<?xml version="1.0" standalone="no"?>
<!DOCTYPE svg PUBLIC "-//W3C//DTD SVG 20010904//EN"
 "http://www.w3.org/TR/2001/REC-SVG-20010904/DTD/svg10.dtd">
<svg version="1.0" xmlns="http://www.w3.org/2000/svg"
 width="260.000000pt" height="260.000000pt" viewBox="0 0 260.000000 260.000000"
 preserveAspectRatio="xMidYMid meet">
<metadata>
Created by potrace 1.11, written by Peter Selinger 2001-2013
</metadata>
<g transform="translate(0.000000,260.000000) scale(0.100000,-0.100000)"
fill="#000000" stroke="none">
<path d="M1820 1969 c-63 -5 -153 -17 -200 -28 -47 -11 -108 -24 -135 -30
-135 -26 -255 -102 -255 -161 0 -37 55 -117 108 -157 46 -35 102 -44 122 -20
5 6 19 23 29 37 15 19 22 22 32 13 9 -9 7 -27 -9 -80 -11 -37 -32 -115 -47
-172 -15 -57 -32 -118 -40 -135 -26 -62 -59 -171 -57 -190 0 -11 -3 -25 -7
-31 -22 -28 -20 -63 8 -122 46 -97 123 -140 166 -93 23 25 35 25 78 0 27 -16
47 -19 110 -16 49 2 85 9 101 20 14 9 49 21 77 27 64 14 173 58 256 105 75 42
153 132 153 177 0 15 -9 53 -20 85 -20 56 -60 102 -173 199 -20 17 -37 35 -37
40 0 4 32 44 71 87 108 120 126 174 90 258 -29 68 -156 166 -231 179 -25 4
-52 9 -60 12 -8 2 -67 0 -130 -4z m130 -238 c0 -27 -165 -151 -200 -151 -12 0
-110 81 -110 91 0 10 79 40 145 54 70 16 165 19 165 6z m88 -455 c17 -9 32
-22 32 -29 0 -7 -20 -31 -45 -55 -32 -30 -78 -56 -162 -91 -126 -53 -208 -79
-219 -69 -7 8 51 188 69 213 34 46 254 68 325 31z"/>
<path d="M775 1953 c-46 -24 -90 -69 -170 -173 -93 -122 -107 -135 -134 -121
-35 19 -61 13 -72 -16 -6 -16 -24 -88 -40 -162 -16 -73 -32 -138 -35 -143 -5
-8 -21 -97 -29 -163 -2 -16 -8 -50 -14 -75 -14 -59 -13 -124 2 -180 17 -60 36
-88 73 -106 27 -13 35 -13 67 1 42 17 70 57 92 128 8 26 17 52 20 57 3 5 31
-11 61 -35 72 -59 162 -104 310 -154 205 -70 280 -74 333 -17 40 42 38 145 -3
199 -10 12 -36 21 -81 28 -135 19 -267 58 -337 100 -38 22 -68 46 -68 54 0 8
37 26 98 46 53 18 117 41 142 51 124 53 198 152 187 251 -6 54 -65 208 -92
237 -8 9 -15 21 -15 27 0 15 -98 108 -157 150 -52 37 -91 41 -138 16z m103
-360 c28 -40 35 -68 20 -80 -20 -15 -168 -70 -212 -78 l-39 -8 7 29 c8 30 52
90 114 156 34 35 36 36 63 23 15 -8 36 -27 47 -42z"/>
<path d="M408 685 c-3 -4 -57 -10 -120 -13 l-113 -7 -3 -97 c-2 -88 -1 -98 17
-107 28 -16 74 -16 171 -2 47 7 258 16 470 21 212 4 393 11 403 15 11 5 25 1
37 -10 28 -26 107 -43 150 -34 77 16 316 29 554 29 255 0 394 10 463 33 32 10
38 16 38 41 0 29 -8 37 -55 56 -14 5 -36 19 -50 30 -14 11 -54 25 -90 32 -89
15 -715 16 -911 1 -109 -9 -171 -9 -210 -2 -63 12 -741 25 -751 14z"/>
</g>
</svg>
